<svg width="200" height="22" viewBox="0 0 200 22" fill="none" xmlns="http://www.w3.org/2000/svg">
  <path d="M39.5253 0.461617L51.2074 0.463575C54.0319 0.464948 58.0875 0.151447 60.7313 0.898133C61.9887 1.25323 62.9257 1.82315 63.5599 3.01283C64.2258 4.26155 64.3001 5.93522 63.886 7.28185C63.4385 8.73677 62.5115 9.57389 61.2002 10.2429C62.6433 10.7942 63.9321 11.5597 64.6497 12.9995C65.417 14.5388 65.3639 16.4879 64.7969 18.0805C64.5468 18.5961 64.2336 19.0687 63.8248 19.4731C63.0406 20.2484 62.0101 20.7224 60.9416 20.9533C58.2278 21.5395 55.1439 21.2811 52.3704 21.2835L39.498 21.2823L39.5253 0.461617ZM46.9035 16.0249L52.8011 16.0322C53.9166 16.0322 55.1739 16.1375 56.2661 15.9299C56.5117 15.8833 56.7417 15.771 56.9641 15.661C57.3079 15.2464 57.5831 14.619 57.5227 14.0662C57.4813 13.6862 57.209 13.3744 56.9074 13.1618C56.5192 12.8881 56.0546 12.7503 55.5891 12.6833C54.6101 12.5422 53.5334 12.626 52.5421 12.6279L46.8943 12.6456L46.9035 16.0249ZM46.8572 8.70184C48.7204 8.71106 54.8591 9.04066 56.1847 8.35812C56.537 7.91769 56.6754 7.51178 56.6051 6.94244C56.5592 6.57008 56.3893 6.21675 56.0839 5.98957C55.1983 5.33057 48.4108 5.64369 46.8443 5.60013L46.8572 8.70184Z" fill="#7394F7"/>
  <path d="M20.9635 0.460449L36.5462 0.461234L36.5327 21.269L30.7903 21.2733L28.9228 21.2737C29.015 14.5088 28.9071 7.73191 28.9289 0.965237C27.8187 2.89905 26.9641 5.02669 26.0075 7.0427C23.7833 11.7687 21.5873 16.5078 19.4195 21.2599L9.71339 21.2494C8.95391 19.734 8.28958 18.1639 7.57317 16.6274C6.03712 13.3707 4.52057 10.105 3.02353 6.83024C2.05272 4.72064 1.16179 2.48686 0 0.477321L8.68074 0.462215C10.6271 5.35099 12.9481 10.0856 14.7817 15.021C16.7244 10.1174 18.785 5.26388 20.9635 0.460449Z" fill="#7394F7"/>
  <path d="M131.984 0.472178C138.728 0.376046 145.488 0.457269 152.233 0.458838C155.313 4.29821 158.753 7.84741 161.895 11.6383L161.885 0.475315L169.542 0.475123L169.536 21.2548L166.962 21.254L161.784 21.2446C158.477 17.3448 155.128 13.406 151.59 9.71433L151.576 21.2209L143.728 21.232L143.738 3.61783L145.792 3.61332L145.803 2.313C141.658 2.21078 137.487 2.29711 133.34 2.30986C132.849 1.72189 132.417 1.10331 131.984 0.472178Z" fill="#7394F7"/>
  <path d="M102.513 0.111113C105.95 -0.180224 112.424 -0.0364198 115.097 2.25641C116.448 3.41548 116.844 4.90199 116.984 6.59194C114.239 6.67159 111.479 6.58468 108.729 6.64138C108.669 6.47129 108.608 6.29786 108.526 6.13639C108.245 5.57864 107.581 5.23512 107.012 5.05502C105.404 4.54611 102.212 4.562 100.743 5.41305C100.317 5.66044 100.014 5.95119 99.8873 6.43401C100.251 9.06664 113.168 6.94115 117.034 10.4835C118.146 11.5017 118.521 12.9103 118.57 14.3674C118.624 15.9985 118.176 17.5856 117.024 18.7879C114.53 21.3907 110.052 21.56 106.669 21.6449C102.927 21.6528 96.8071 21.9732 93.8043 19.5538C92.2625 18.3115 91.816 16.4952 91.6304 14.6175C94.4078 14.5569 97.1948 14.5967 99.9732 14.5903C100.059 14.9334 100.121 15.3454 100.372 15.6124C101.283 16.5829 104.659 16.4948 105.935 16.4638C107.086 16.4358 109.386 16.4332 110.21 15.4908C110.399 15.275 110.48 15.0095 110.431 14.7252C110.323 14.1045 109.695 13.8785 109.159 13.7294C108.089 13.432 106.817 13.4298 105.708 13.3419C102.658 13.1004 96.205 12.8729 93.8781 10.9445C92.7922 10.0448 92.339 8.71115 92.1968 7.35099C92.0418 5.86703 92.2848 4.31323 93.2823 3.14808C95.458 0.606682 99.4172 0.29906 102.513 0.111113Z" fill="#7394F7"/>
  <path d="M67.2275 0.463867L90.0979 0.466418L90.0948 5.73305C85.02 5.82584 79.9315 5.75305 74.8554 5.75384L74.8581 8.48711L89.0536 8.46259C89.0672 10.0364 89.063 11.6101 89.041 13.1838L80.6829 13.1611C78.7412 13.143 76.7995 13.1359 74.8577 13.1397L74.8552 16.1592L90.1701 16.1613L90.1791 21.3418L67.2251 21.2675L67.2275 0.463867Z" fill="#7394F7"/>
  <path d="M184.538 0.214499C188.463 0.106401 194.71 0.085803 197.795 2.74747C199.429 4.15765 199.835 5.99553 199.99 8.04842L191.539 8.019C191.243 7.45398 190.929 7.03767 190.382 6.69356C188.653 5.60649 184.94 5.71066 183.008 6.15208C181.892 6.40732 180.878 6.93212 180.28 7.94621C179.512 9.24811 179.479 11.4625 179.909 12.894C180.213 13.9095 180.872 14.6858 181.825 15.1498C183.65 16.0391 187.789 16.0834 189.684 15.4015C190.714 15.0307 191.292 14.4369 191.736 13.4543C193.185 13.432 194.637 13.4438 196.088 13.439C197.392 13.4215 198.696 13.432 200 13.4706C199.906 15.3677 199.549 17.2647 198.224 18.7131C196.015 21.1274 192.062 21.3999 189.005 21.516C184.47 21.6885 177.637 21.9422 174.12 18.636C172.111 16.7481 171.621 13.9268 171.542 11.2873C171.459 8.49828 171.798 5.43738 173.825 3.32621C176.544 0.494456 180.874 0.317301 184.538 0.214499Z" fill="#7394F7"/>
  <path d="M116.304 0.409668C119.399 0.481865 122.501 0.427916 125.598 0.453224C127.451 3.20199 129.418 5.87288 131.261 8.63048C132.46 6.97767 133.625 5.30099 134.754 3.60045L142.815 3.60202C141.077 6.02636 139.321 8.43762 137.547 10.8358C136.742 11.9898 135.891 13.1149 135.057 14.2481L135.049 21.1748C132.373 21.1941 129.698 21.1971 127.023 21.1839L127.047 14.3935C124.255 10.8651 121.512 7.29882 118.818 3.69461C118.022 2.64031 116.901 1.56187 116.304 0.409668Z" fill="#7394F7"/>
</svg>
